REM DIRINDEX 1\5,1\2\6,1\2\7,1\3\8,1\3\9,1\4\10,1\4\11,1\4\12
REM DIRNAME cjc026,folder01,folder02,folder03,folder04,folder05,folder06,folder07,folder08,folder09,folder10,folder11
TITLE ""
FILE "JE_DB3000_5th_5C_17.mp3" MP3
  TRACK 01 AUDIO
    TITLE "0:"
    INDEX 01 00:00:00
  TRACK 02 AUDIO
    TITLE "6:cjc026_02533"
    INDEX 01 00:00:08
  TRACK 03 AUDIO
    TITLE "0:"
    INDEX 01 00:01:14
  TRACK 04 AUDIO
    TITLE "7:cjc026_02534"
    INDEX 01 00:01:49
  TRACK 05 AUDIO
    TITLE "0:"
    INDEX 01 00:03:04
  TRACK 06 AUDIO
    TITLE "6:cjc026_02535"
    INDEX 01 00:03:42
  TRACK 07 AUDIO
    TITLE "0:"
    INDEX 01 00:04:56
  TRACK 08 AUDIO
    TITLE "7:cjc026_02536"
    INDEX 01 00:05:19
  TRACK 09 AUDIO
    TITLE "0:"
    INDEX 01 00:06:41
  TRACK 10 AUDIO
    TITLE "6:cjc026_02537"
    INDEX 01 00:07:01
  TRACK 11 AUDIO
    TITLE "0:"
    INDEX 01 00:08:26
  TRACK 12 AUDIO
    TITLE "7:cjc026_02538"
    INDEX 01 00:08:61
  TRACK 13 AUDIO
    TITLE "0:"
    INDEX 01 00:10:11
  TRACK 14 AUDIO
    TITLE "6:cjc026_02539"
    INDEX 01 00:10:49
  TRACK 15 AUDIO
    TITLE "0:"
    INDEX 01 00:11:74
  TRACK 16 AUDIO
    TITLE "7:cjc026_02540"
    INDEX 01 00:12:31
  TRACK 17 AUDIO
    TITLE "0:"
    INDEX 01 00:13:64
  TRACK 18 AUDIO
    TITLE "6:cjc026_02541"
    INDEX 01 00:14:21
  TRACK 19 AUDIO
    TITLE "0:"
    INDEX 01 00:15:52
  TRACK 20 AUDIO
    TITLE "7:cjc026_02542"
    INDEX 01 00:16:12
  TRACK 21 AUDIO
    TITLE "0:"
    INDEX 01 00:17:45
  TRACK 22 AUDIO
    TITLE "6:cjc026_02543"
    INDEX 01 00:18:05
  TRACK 23 AUDIO
    TITLE "0:"
    INDEX 01 00:19:24
  TRACK 24 AUDIO
    TITLE "7:cjc026_02544"
    INDEX 01 00:19:62
  TRACK 25 AUDIO
    TITLE "0:"
    INDEX 01 00:21:07
  TRACK 26 AUDIO
    TITLE "6:cjc026_02545"
    INDEX 01 00:21:39
  TRACK 27 AUDIO
    TITLE "0:"
    INDEX 01 00:23:27
  TRACK 28 AUDIO
    TITLE "7:cjc026_02546"
    INDEX 01 00:23:59
  TRACK 29 AUDIO
    TITLE "0:"
    INDEX 01 00:25:12
  TRACK 30 AUDIO
    TITLE "6:cjc026_02547"
    INDEX 01 00:25:47
  TRACK 31 AUDIO
    TITLE "0:"
    INDEX 01 00:27:08
  TRACK 32 AUDIO
    TITLE "7:cjc026_02548"
    INDEX 01 00:27:45
  TRACK 33 AUDIO
    TITLE "0:"
    INDEX 01 00:29:03
  TRACK 34 AUDIO
    TITLE "6:cjc026_02549"
    INDEX 01 00:29:41
  TRACK 35 AUDIO
    TITLE "0:"
    INDEX 01 00:31:10
  TRACK 36 AUDIO
    TITLE "7:cjc026_02550"
    INDEX 01 00:31:45
  TRACK 37 AUDIO
    TITLE "0:"
    INDEX 01 00:33:14
  TRACK 38 AUDIO
    TITLE "6:cjc026_02551"
    INDEX 01 00:33:52
  TRACK 39 AUDIO
    TITLE "0:"
    INDEX 01 00:35:04
  TRACK 40 AUDIO
    TITLE "7:cjc026_02552"
    INDEX 01 00:35:39
  TRACK 41 AUDIO
    TITLE "0:"
    INDEX 01 00:36:51
  TRACK 42 AUDIO
    TITLE "6:cjc026_02553"
    INDEX 01 00:37:14
  TRACK 43 AUDIO
    TITLE "0:"
    INDEX 01 00:38:22
  TRACK 44 AUDIO
    TITLE "7:cjc026_02554"
    INDEX 01 00:38:57
  TRACK 45 AUDIO
    TITLE "0:"
    INDEX 01 00:39:66
  TRACK 46 AUDIO
    TITLE "6:cjc026_02555"
    INDEX 01 00:40:26
  TRACK 47 AUDIO
    TITLE "0:"
    INDEX 01 00:41:54
  TRACK 48 AUDIO
    TITLE "7:cjc026_02556"
    INDEX 01 00:42:14
  TRACK 49 AUDIO
    TITLE "0:"
    INDEX 01 00:43:39
  TRACK 50 AUDIO
    TITLE "6:cjc026_02557"
    INDEX 01 00:43:74
  TRACK 51 AUDIO
    TITLE "0:"
    INDEX 01 00:45:18
  TRACK 52 AUDIO
    TITLE "7:cjc026_02558"
    INDEX 01 00:45:54
  TRACK 53 AUDIO
    TITLE "0:"
    INDEX 01 00:46:73
  TRACK 54 AUDIO
    TITLE "6:cjc026_02559"
    INDEX 01 00:47:39
  TRACK 55 AUDIO
    TITLE "0:"
    INDEX 01 00:49:64
  TRACK 56 AUDIO
    TITLE "7:cjc026_02560"
    INDEX 01 00:50:21
  TRACK 57 AUDIO
    TITLE "0:"
    INDEX 01 00:51:63
  TRACK 58 AUDIO
    TITLE "6:cjc026_02561"
    INDEX 01 00:52:20
  TRACK 59 AUDIO
    TITLE "0:"
    INDEX 01 00:53:53
  TRACK 60 AUDIO
    TITLE "7:cjc026_02562"
    INDEX 01 00:54:13
  TRACK 61 AUDIO
    TITLE "0:"
    INDEX 01 00:55:60
